<svg width="1280" height="400" viewBox="0 0 1280 400" xmlns="http://www.w3.org/2000/svg">
  <defs>
    <linearGradient id="bg" x1="0%" y1="0%" x2="100%" y2="100%">
      <stop offset="0%" style="stop-color:#0d1117"/>
      <stop offset="100%" style="stop-color:#161b22"/>
    </linearGradient>
    <linearGradient id="accent" x1="0%" y1="0%" x2="100%" y2="0%">
      <stop offset="0%" style="stop-color:#10B981"/>
      <stop offset="100%" style="stop-color:#059669"/>
    </linearGradient>
    <linearGradient id="glow" x1="0%" y1="0%" x2="100%" y2="100%">
      <stop offset="0%" style="stop-color:#10B98120"/>
      <stop offset="100%" style="stop-color:#05966900"/>
    </linearGradient>
  </defs>
  <rect width="1280" height="400" fill="url(#bg)"/>
  <ellipse cx="200" cy="200" rx="300" ry="200" fill="url(#glow)"/>
  <g opacity="0.04" stroke="#ffffff" stroke-width="1">
    <line x1="0" y1="80" x2="1280" y2="80"/><line x1="0" y1="160" x2="1280" y2="160"/>
    <line x1="0" y1="240" x2="1280" y2="240"/><line x1="0" y1="320" x2="1280" y2="320"/>
    <line x1="160" y1="0" x2="160" y2="400"/><line x1="320" y1="0" x2="320" y2="400"/>
    <line x1="480" y1="0" x2="480" y2="400"/><line x1="640" y1="0" x2="640" y2="400"/>
    <line x1="800" y1="0" x2="800" y2="400"/><line x1="960" y1="0" x2="960" y2="400"/>
    <line x1="1120" y1="0" x2="1120" y2="400"/>
  </g>
  <rect x="0" y="0" width="1280" height="3" fill="url(#accent)"/>
  <!-- Diamond shapes decoration -->
  <rect x="960" y="80" width="70" height="70" rx="4" fill="none" stroke="#10B981" stroke-width="1" opacity="0.3" transform="rotate(45 995 115)"/>
  <rect x="960" y="80" width="110" height="110" rx="4" fill="none" stroke="#10B981" stroke-width="1" opacity="0.15" transform="rotate(45 995 115)"/>
  <rect x="1080" y="220" width="50" height="50" rx="4" fill="none" stroke="#059669" stroke-width="1" opacity="0.25" transform="rotate(45 1105 245)"/>
  <circle cx="995" cy="115" r="4" fill="#10B981" opacity="0.8"/>
  <circle cx="1105" cy="245" r="3" fill="#059669" opacity="0.6"/>
  <line x1="995" y1="115" x2="1105" y2="245" stroke="#10B981" stroke-width="1" opacity="0.2"/>
  <!-- Badge -->
  <rect x="80" y="100" width="130" height="28" rx="14" fill="#10B98120" stroke="#10B981" stroke-width="1"/>
  <text x="145" y="119" font-family="monospace" font-size="12" fill="#10B981" text-anchor="middle">SKILL.md</text>
  <!-- Title -->
  <text x="80" y="200" font-family="-apple-system, BlinkMacSystemFont, 'Segoe UI', sans-serif" font-size="52" font-weight="700" fill="#ffffff" letter-spacing="-1">Grants Program</text>
  <text x="80" y="258" font-family="-apple-system, BlinkMacSystemFont, 'Segoe UI', sans-serif" font-size="52" font-weight="700" fill="#10B981" letter-spacing="-1">Marketing</text>
  <text x="80" y="310" font-family="-apple-system, BlinkMacSystemFont, 'Segoe UI', sans-serif" font-size="18" fill="#8b949e">Design, market, and operate a Web3 grants program that attracts real builders</text>
  <rect x="80" y="340" width="88" height="24" rx="12" fill="#10B98110" stroke="#10B98140" stroke-width="1"/>
  <text x="124" y="357" font-family="monospace" font-size="11" fill="#10B981" text-anchor="middle">5 modules</text>
  <rect x="180" y="340" width="90" height="24" rx="12" fill="#10B98110" stroke="#10B98140" stroke-width="1"/>
  <text x="225" y="357" font-family="monospace" font-size="11" fill="#10B981" text-anchor="middle">DAO ready</text>
  <rect x="282" y="340" width="100" height="24" rx="12" fill="#10B98110" stroke="#10B98140" stroke-width="1"/>
  <text x="332" y="357" font-family="monospace" font-size="11" fill="#10B981" text-anchor="middle">OpenClaw</text>
</svg>
